<svg width="24" height="24" viewBox="0 0 24 24" fill="none" xmlns="http://www.w3.org/2000/svg">
<path d="M1 18H19C19.176 18.0001 19.3488 17.9537 19.5011 17.8656C19.6534 17.7774 19.7798 17.6507 19.8674 17.4981C19.955 17.3456 20.0009 17.1726 20.0003 16.9966C19.9997 16.8207 19.9527 16.648 19.864 16.496L12.864 4.496C12.505 3.881 11.495 3.883 11.135 4.496L7.866 10.1L6.846 8.468C6.75619 8.3247 6.63144 8.20658 6.48345 8.12472C6.33547 8.04285 6.16912 7.99994 6 8H5.999C5.82956 8.00017 5.66295 8.04339 5.51479 8.1256C5.36664 8.20781 5.2418 8.32632 5.152 8.47L0.152 16.47C0.0573919 16.6214 0.0050271 16.7953 0.000341748 16.9738C-0.00434361 17.1522 0.0388214 17.3286 0.125355 17.4848C0.211889 17.6409 0.338637 17.771 0.49244 17.8616C0.646243 17.9522 0.821495 18 1 18V18ZM12 6.985L17.259 16H11.555L9.069 12.013L12 6.985ZM6.001 10.885L9.197 16H2.805L6.001 10.885V10.885ZM4 6C5.654 6 7 4.654 7 3C7 1.346 5.654 0 4 0C2.346 0 1 1.346 1 3C1 4.654 2.346 6 4 6ZM4 2C4.26522 2 4.51957 2.10536 4.70711 2.29289C4.89464 2.48043 5 2.73478 5 3C5 3.26522 4.89464 3.51957 4.70711 3.70711C4.51957 3.89464 4.26522 4 4 4C3.73478 4 3.48043 3.89464 3.29289 3.70711C3.10536 3.51957 3 3.26522 3 3C3 2.73478 3.10536 2.48043 3.29289 2.29289C3.48043 2.10536 3.73478 2 4 2V2Z" fill="black"/>
</svg>
